<svg xmlns="http://www.w3.org/2000/svg" width="300" height="600"><rect width="300" height="600" x="0" y="0" fill="#F8F8F8" id="backgorund"/><g transform="translate(50,50)" id="viz"><g fill="none" font-size="10" font-family="sans-serif" text-anchor="middle"><path class="domain" stroke="currentColor" d="M0,0H198"/><g class="tick" opacity="1" transform="translate(50.52061855670103,0)"><line stroke="currentColor" y2="-6"/><text fill="currentColor" y="-9" dy="3.4641016151377544" dx="3.4641016151377544" text-anchor="start" transform="rotate(-45)">Ida</text></g><g class="tick" opacity="1" transform="translate(147.47938144329896,0)"><line stroke="currentColor" y2="-6"/><text fill="currentColor" y="-9" dy="3.4641016151377544" dx="3.4641016151377544" text-anchor="start" transform="rotate(-45)">Vuelta</text></g></g><g fill="none" font-size="10" font-family="sans-serif" text-anchor="end"><path class="domain" stroke="currentColor" d="M0,0V495"/><g class="tick" opacity="1" transform="translate(0,51.15344467640919)"><line stroke="currentColor" x2="-6"/><text fill="currentColor" x="-9" dy="0.32em">Lunes</text></g><g class="tick" opacity="1" transform="translate(0,149.3267223382046)"><line stroke="currentColor" x2="-6"/><text fill="currentColor" x="-9" dy="0.32em">Martes</text></g><g class="tick" opacity="1" transform="translate(0,247.5)"><line stroke="currentColor" x2="-6"/><text fill="currentColor" x="-9" dy="0.32em">Miércoles</text></g><g class="tick" opacity="1" transform="translate(0,345.67327766179545)"><line stroke="currentColor" x2="-6"/><text fill="currentColor" x="-9" dy="0.32em">Jueves</text></g><g class="tick" opacity="1" transform="translate(0,443.84655532359085)"><line stroke="currentColor" x2="-6"/><text fill="currentColor" x="-9" dy="0.32em">Viernes</text></g></g><text dx="-9" dy="-9" style="text-anchor: end; font-family: Arial, sans-serif; font-size: 12px; fill: rgb(123, 123, 123); font-weight: bold;">Día</text><text x="146.37110370561533" y="146.37110370561533" dx="3.4641016151377544" dy="-3.4641016151377544" transform="rotate(-45)" style="text-anchor: start; font-family: Arial, sans-serif; font-size: 12px; fill: rgb(123, 123, 123); font-weight: bold;">Camino</text><rect x="10.601596761342314" y="10.652734225561154" rx="6.556940394473889" ry="6.556940394473889" width="81.96175493092362" height="81.96175493092362" style="fill: rgb(252, 173, 145);"/><rect x="110.37154689647363" y="13.46392147409454" rx="6.107150434708547" ry="6.107150434708547" width="76.33938043385685" height="76.33938043385685" style="fill: rgb(255, 241, 235);"/><rect x="4.082474226804123" y="102.30688935281837" rx="7.6" ry="7.6" width="95" height="95" style="fill: rgb(103, 0, 13);"/><rect x="109.1293386727856" y="110.3949909122019" rx="6.305903750498635" ry="6.305903750498635" width="78.82379688123294" height="78.82379688123294" style="fill: rgb(254, 218, 202);"/><rect x="9.785494169914287" y="206.18318695772393" rx="6.687516809102374" ry="6.687516809102374" width="83.59396011377967" height="83.59396011377967" style="fill: rgb(252, 146, 115);"/><rect x="101.34054696215779" y="200.7794768633695" rx="7.552110424199084" ry="7.552110424199084" width="94.40138030248855" height="94.40138030248855" style="fill: rgb(120, 4, 15);"/><rect x="12.459311531330712" y="307.0302819809358" rx="6.259706031275746" ry="6.259706031275746" width="78.24632539094682" height="78.24632539094682" style="fill: rgb(254, 224, 211);"/><rect x="110.59498114909721" y="308.20718871210437" rx="6.0714009542887775" ry="6.0714009542887775" width="75.89251192860972" height="75.89251192860972" style="fill: rgb(255, 245, 240);"/><rect x="10.000797925576194" y="402.74504603697665" rx="6.653068208196469" ry="6.653068208196469" width="83.16335260245586" height="83.16335260245586" style="fill: rgb(252, 153, 123);"/><rect x="108.3107649317361" y="404.09625015653864" rx="6.436875549066554" ry="6.436875549066554" width="80.46094436333192" height="80.46094436333192" style="fill: rgb(253, 196, 173);"/><g id="labels"><g transform="translate(51.58247422680412,51.63361169102296)"><text x="0" y="0" text-anchor="middle" dominant-baseline="text-before-edge" transform="translate(0,0)"/></g><g transform="translate(148.54123711340208,51.63361169102296)"><text x="0" y="0" text-anchor="middle" dominant-baseline="text-before-edge" transform="translate(0,0)"/></g><g transform="translate(51.58247422680412,149.80688935281836)"><text x="0" y="0" text-anchor="middle" dominant-baseline="text-before-edge" transform="translate(0,0)"/></g><g transform="translate(148.54123711340208,149.80688935281836)"><text x="0" y="0" text-anchor="middle" dominant-baseline="text-before-edge" transform="translate(0,0)"/></g><g transform="translate(51.58247422680412,247.98016701461378)"><text x="0" y="0" text-anchor="middle" dominant-baseline="text-before-edge" transform="translate(0,0)"/></g><g transform="translate(148.54123711340208,247.98016701461378)"><text x="0" y="0" text-anchor="middle" dominant-baseline="text-before-edge" transform="translate(0,0)"/></g><g transform="translate(51.58247422680412,346.1534446764092)"><text x="0" y="0" text-anchor="middle" dominant-baseline="text-before-edge" transform="translate(0,0)"/></g><g transform="translate(148.54123711340208,346.1534446764092)"><text x="0" y="0" text-anchor="middle" dominant-baseline="text-before-edge" transform="translate(0,0)"/></g><g transform="translate(51.58247422680412,444.3267223382046)"><text x="0" y="0" text-anchor="middle" dominant-baseline="text-before-edge" transform="translate(0,0)"/></g><g transform="translate(148.54123711340208,444.3267223382046)"><text x="0" y="0" text-anchor="middle" dominant-baseline="text-before-edge" transform="translate(0,0)"/></g></g></g></svg>