<svg xmlns="http://www.w3.org/2000/svg" width="180" height="400"><rect width="180" height="400" x="0" y="0" fill="#f8f8f8" id="backgorund"/><g transform="translate(80,50)" id="viz"><g fill="none" font-size="10" font-family="sans-serif" text-anchor="middle"><path class="domain" stroke="currentColor" d="M0,0H36.111111111111114"/><g class="tick" opacity="1" transform="translate(18.055555555555557,0)"><line stroke="currentColor" y2="-6"/><text fill="currentColor" y="-9" dy="3.4641016151377544" dx="3.4641016151377544" text-anchor="start" transform="rotate(-45)"/></g></g><g fill="none" font-size="10" font-family="sans-serif" text-anchor="end"><path class="domain" stroke="currentColor" d="M0,0V325"/><g class="tick" opacity="1" transform="translate(0,20.027493363670843)"><line stroke="currentColor" x2="-6"/><text fill="currentColor" x="-9" dy="0.32em">6</text></g><g class="tick" opacity="1" transform="translate(0,55.64562002275313)"><line stroke="currentColor" x2="-6"/><text fill="currentColor" x="-9" dy="0.32em">7</text></g><g class="tick" opacity="1" transform="translate(0,91.26374668183541)"><line stroke="currentColor" x2="-6"/><text fill="currentColor" x="-9" dy="0.32em">8</text></g><g class="tick" opacity="1" transform="translate(0,126.88187334091769)"><line stroke="currentColor" x2="-6"/><text fill="currentColor" x="-9" dy="0.32em">9</text></g><g class="tick" opacity="1" transform="translate(0,162.5)"><line stroke="currentColor" x2="-6"/><text fill="currentColor" x="-9" dy="0.32em">12</text></g><g class="tick" opacity="1" transform="translate(0,198.1181266590823)"><line stroke="currentColor" x2="-6"/><text fill="currentColor" x="-9" dy="0.32em">16</text></g><g class="tick" opacity="1" transform="translate(0,233.73625331816453)"><line stroke="currentColor" x2="-6"/><text fill="currentColor" x="-9" dy="0.32em">17</text></g><g class="tick" opacity="1" transform="translate(0,269.3543799772468)"><line stroke="currentColor" x2="-6"/><text fill="currentColor" x="-9" dy="0.32em">19</text></g><g class="tick" opacity="1" transform="translate(0,304.9725066363291)"><line stroke="currentColor" x2="-6"/><text fill="currentColor" x="-9" dy="0.32em">20</text></g></g><text dx="-9" dy="-9" style="text-anchor: end; font-family: Arial, sans-serif; font-size: 12px; fill: rgb(123, 123, 123); font-weight: bold;">Hora Salida</text><text x="31.898372573526476" y="31.898372573526476" dx="3.4641016151377544" dy="-3.4641016151377544" transform="rotate(-45)" style="text-anchor: start; font-family: Arial, sans-serif; font-size: 12px; fill: rgb(123, 123, 123); font-weight: bold;">Tráfico</text><rect x="4.950135084631382" y="76.62324847105535" rx="2.416867275347868" ry="2.416867275347868" width="30.21084094184835" height="30.21084094184835" style="fill: rgb(202, 28, 30);"/><rect x="7.56609135089375" y="292.9479646918114" rx="1.9983142727458891" ry="1.9983142727458891" width="24.978928409323615" height="24.978928409323615" style="fill: rgb(253, 214, 197);"/><rect x="4" y="40.05498672734168" rx="2.568888888888889" ry="2.568888888888889" width="32.111111111111114" height="32.111111111111114" style="fill: rgb(103, 0, 13);"/><rect x="6.976877045872552" y="256.74062372770794" rx="2.092588561549281" ry="2.092588561549281" width="26.15735701936601" height="26.15735701936601" style="fill: rgb(252, 177, 150);"/><rect x="6.147275036189722" y="6.584135104449114" rx="2.2253248830985335" ry="2.2253248830985335" width="27.81656103873167" height="27.81656103873167" style="fill: rgb(251, 117, 86);"/><rect x="4.349147139501605" y="218.4947671622547" rx="2.5130253465686323" ry="2.5130253465686323" width="31.412816832107904" height="31.412816832107904" style="fill: rgb(147, 11, 19);"/><rect x="7.540986874899129" y="186.06848023856995" rx="2.0023309889050283" ry="2.0023309889050283" width="25.029137361312856" height="25.029137361312856" style="fill: rgb(253, 213, 195);"/><rect x="7.243569488480537" y="150.15293619306908" rx="2.0499177707320033" ry="2.0499177707320033" width="25.62397213415004" height="25.62397213415004" style="fill: rgb(253, 195, 172);"/><rect x="8.330830467475522" y="115.62207051298176" rx="1.8759560140928055" ry="1.8759560140928055" width="23.44945017616007" height="23.44945017616007" style="fill: rgb(255, 245, 240);"/><g id="labels"><g transform="translate(20.055555555555557,91.72866894197952)"><text x="0" y="0" text-anchor="middle" dominant-baseline="text-before-edge" transform="translate(0,0)"/></g><g transform="translate(20.055555555555557,305.4374288964732)"><text x="0" y="0" text-anchor="middle" dominant-baseline="text-before-edge" transform="translate(0,0)"/></g><g transform="translate(20.055555555555557,56.110542282897235)"><text x="0" y="0" text-anchor="middle" dominant-baseline="text-before-edge" transform="translate(0,0)"/></g><g transform="translate(20.055555555555557,269.81930223739096)"><text x="0" y="0" text-anchor="middle" dominant-baseline="text-before-edge" transform="translate(0,0)"/></g><g transform="translate(20.055555555555557,20.49241562381495)"><text x="0" y="0" text-anchor="middle" dominant-baseline="text-before-edge" transform="translate(0,0)"/></g><g transform="translate(20.055555555555557,234.20117557830866)"><text x="0" y="0" text-anchor="middle" dominant-baseline="text-before-edge" transform="translate(0,0)"/></g><g transform="translate(20.055555555555557,198.58304891922637)"><text x="0" y="0" text-anchor="middle" dominant-baseline="text-before-edge" transform="translate(0,0)"/></g><g transform="translate(20.055555555555557,162.96492226014408)"><text x="0" y="0" text-anchor="middle" dominant-baseline="text-before-edge" transform="translate(0,0)"/></g><g transform="translate(20.055555555555557,127.3467956010618)"><text x="0" y="0" text-anchor="middle" dominant-baseline="text-before-edge" transform="translate(0,0)"/></g></g></g></svg>